<?xml version="1.0" standalone="no"?>
<!DOCTYPE svg PUBLIC "-//W3C//DTD SVG 20010904//EN"
 "http://www.w3.org/TR/2001/REC-SVG-20010904/DTD/svg10.dtd">
<svg version="1.0" xmlns="http://www.w3.org/2000/svg"
 width="736.000000pt" height="736.000000pt" viewBox="0 0 736.000000 736.000000"
 preserveAspectRatio="xMidYMid meet">

<g transform="translate(0.000000,736.000000) scale(0.100000,-0.100000)"
fill="#000000" stroke="none">
<path d="M0 3680 l0 -3680 3680 0 3680 0 0 3680 0 3680 -32 -1 c-25 0 -28 -2
-15 -8 17 -6 17 -8 3 -20 -18 -15 -40 -5 -32 15 3 8 1 14 -4 14 -6 0 -10 -4
-10 -10 0 -5 -9 -10 -21 -10 -11 0 -18 4 -15 8 3 5 -15 9 -39 10 -32 0 -45 -4
-45 -14 0 -8 5 -14 10 -14 6 0 10 5 10 10 0 6 5 10 11 10 6 0 8 -9 4 -20 -7
-21 9 -28 20 -10 4 6 10 8 15 5 13 -8 -11 -85 -27 -85 -10 0 -12 6 -8 20 8 24
-1 26 -22 5 -21 -22 -26 -13 -11 20 10 23 10 29 0 33 -6 2 -12 12 -12 23 0 18
-69 19 -3570 19 l-3570 0 0 -3680z m7050 3666 c0 -3 -4 -8 -10 -11 -5 -3 -10
-1 -10 4 0 6 5 11 10 11 6 0 10 -2 10 -4z m231 -54 c-6 -10 -8 -22 -5 -24 3
-3 -2 -8 -11 -11 -10 -5 -15 0 -15 13 0 11 -4 20 -10 20 -15 0 0 29 18 33 25
5 35 -8 23 -31z m-230 -71 c-7 -5 -11 -14 -9 -22 1 -8 -2 -15 -7 -17 -18 -6
-17 29 2 43 10 7 20 11 23 9 2 -3 -1 -9 -9 -13z m-201 -13 c0 -13 -23 -5 -28
10 -2 7 2 10 12 6 9 -3 16 -11 16 -16z m152 -24 c-5 -27 -9 -28 -26 -12 -11
12 -12 18 -3 27 16 16 33 7 29 -15z m128 16 c0 -5 -5 -10 -11 -10 -5 0 -7 5
-4 10 3 6 8 10 11 10 2 0 4 -4 4 -10z m164 1 c3 -5 -1 -14 -8 -20 -12 -10 -13
-8 -9 8 6 23 9 25 17 12z m-345 -17 c9 -8 -23 -34 -43 -33 -11 0 -15 3 -8 6 6
2 12 9 12 14 0 6 -8 5 -20 -1 -22 -12 -23 -10 -14 15 5 12 14 14 38 9 17 -3
33 -8 35 -10z m249 -75 c-18 -12 -50 -7 -56 8 -2 7 5 16 15 19 10 3 25 9 33
13 20 11 28 -28 8 -40z m-351 10 c21 -11 30 -14 21 -6 -23 18 -23 27 1 27 24
0 35 -28 20 -47 -7 -8 -12 -29 -11 -48 1 -26 -3 -35 -18 -40 -24 -7 -26 -21
-6 -28 10 -4 13 -1 9 9 -3 9 2 14 16 14 12 0 24 1 28 3 4 1 10 -13 14 -30 5
-25 3 -33 -7 -33 -8 0 -14 -4 -14 -9 0 -6 -9 -9 -20 -8 -11 1 -19 6 -18 12 4
15 -14 15 -42 -1 -19 -10 -21 -13 -7 -14 9 0 17 -7 17 -16 0 -10 -6 -14 -14
-11 -7 3 -30 2 -50 -3 -33 -7 -38 -6 -47 13 l-9 22 3 -22 c1 -17 -7 -27 -37
-43 -22 -11 -42 -18 -44 -15 -3 2 9 20 27 40 27 31 30 41 25 74 -5 34 -4 39
17 44 56 15 83 -3 37 -24 -20 -8 -18 -9 10 -5 24 4 32 2 32 -10 0 -9 7 -14 18
-12 12 2 17 13 18 35 0 18 3 36 7 39 4 4 7 17 7 29 0 11 5 26 10 31 7 7 1 9
-21 6 -27 -4 -31 -2 -26 12 4 10 7 22 7 27 0 13 4 12 47 -12z m-82 -9 c-3 -5
-11 -10 -16 -10 -6 0 -7 5 -4 10 3 6 11 10 16 10 6 0 7 -4 4 -10z m-45 -259
c0 -13 -29 -35 -37 -28 -7 8 15 37 28 37 5 0 9 -4 9 -9z m28 -11 c-14 -22 -24
-19 -15 5 4 8 11 15 17 15 6 0 6 -7 -2 -20z m-2933 -1140 c22 -9 74 -24 90
-24 6 -1 15 -8 21 -16 7 -9 31 -15 60 -16 27 -1 52 -2 56 -3 6 -1 73 -62 188
-170 28 -27 35 -36 18 -26 -18 11 -37 15 -53 11 -14 -4 -25 -3 -24 1 4 24 -3
25 -18 3 -10 -14 -16 -26 -15 -28 2 -2 -7 -12 -19 -23 -24 -20 -65 -26 -71 -9
-2 6 -13 2 -25 -10 -29 -27 -31 -26 -27 15 2 31 0 34 -16 25 -9 -5 -20 -7 -23
-4 -3 3 -15 1 -26 -6 -20 -10 -21 -9 -15 17 7 25 6 27 -10 14 -14 -12 -18 -12
-31 5 -13 19 -14 19 -29 -1 -15 -19 -15 -18 -16 23 0 23 -4 42 -8 42 -15 0
-32 -24 -33 -44 0 -16 -4 -13 -15 12 -15 35 -28 40 -50 18 -18 -19 -18 -40 2
-79 l17 -32 -37 38 c-34 36 -37 37 -60 22 -18 -12 -30 -13 -50 -6 -35 14 -58
4 -50 -21 8 -26 -14 -40 -39 -26 -30 16 -114 12 -142 -6 -13 -9 -42 -16 -63
-16 -23 0 -45 -6 -52 -15 -16 -19 -69 -20 -76 0 -4 8 8 29 28 51 18 19 32 39
31 44 -1 4 11 13 27 20 16 7 27 16 24 21 -3 5 0 9 6 9 6 0 26 11 43 24 18 13
60 36 94 52 34 16 62 35 62 42 1 7 17 12 44 12 23 0 53 7 67 15 26 15 30 16
100 44 45 17 77 17 115 1z m22 -292 c-3 -8 -6 -5 -6 6 -1 11 2 17 5 13 3 -3 4
-12 1 -19z m-16 -75 c1 -16 0 -35 -1 -43 -1 -8 1 -12 5 -8 4 4 16 -2 28 -12
11 -11 24 -17 29 -14 4 3 8 0 8 -6 0 -6 6 -10 13 -9 6 1 30 -6 52 -15 68 -30
123 -96 80 -96 -8 0 -15 -4 -15 -10 0 -5 -11 -10 -25 -10 -27 0 -33 -14 -11
-27 8 -4 16 -19 18 -32 1 -13 12 -29 23 -35 11 -6 22 -12 24 -14 3 -1 -4 -9
-15 -16 -20 -15 -39 -12 -29 5 4 5 1 9 -4 9 -6 0 -11 -4 -11 -9 0 -4 -22 -9
-49 -9 -27 -1 -67 -8 -88 -16 -87 -33 -151 -27 -195 17 -29 28 -143 22 -132
-7 3 -9 -3 -13 -18 -13 -42 2 -127 -13 -133 -23 -13 -21 -25 -9 -19 18 10 41
53 83 78 76 16 -4 18 -3 7 5 -12 8 -12 12 -2 25 11 13 11 18 -1 29 -7 7 -19
12 -27 9 -10 -3 -12 0 -8 11 3 9 2 19 -2 22 -16 10 1 46 29 60 15 8 30 12 33
8 7 -7 73 23 82 37 3 6 22 10 41 10 19 0 46 8 61 17 14 9 46 18 72 19 25 1 49
2 54 3 4 1 7 14 7 30 0 26 9 38 33 40 4 1 8 -11 8 -26z m239 -297 c0 -11 -19
-15 -25 -6 -3 5 1 10 9 10 9 0 16 -2 16 -4z m44 -122 c9 -23 1 -28 -17 -10 -8
8 -17 12 -21 9 -3 -4 -6 -1 -6 5 0 18 37 14 44 -4z m-332 -189 c5 -49 2 -91
-6 -97 -5 -3 -2 -17 7 -31 15 -24 15 -25 -6 -31 -36 -9 -82 -7 -95 6 -8 8 -15
8 -26 -1 -31 -26 -33 -4 -5 54 16 33 33 74 39 91 6 17 20 41 32 54 l21 22 18
-23 c10 -13 19 -33 21 -44z m-602 -39 c0 -7 13 -25 30 -41 l29 -28 -32 -17
c-31 -17 -32 -17 -44 8 -17 32 -17 35 7 22 25 -13 27 5 5 34 -17 22 -20 50 -5
41 6 -3 10 -12 10 -19z m650 -126 c0 -5 -2 -10 -4 -10 -3 0 -8 5 -11 10 -3 6
-1 10 4 10 6 0 11 -4 11 -10z m-210 -84 c0 -42 -6 -47 -53 -39 -44 7 -46 16
-11 48 40 37 64 33 64 -9z m20 -98 c0 -4 -7 -8 -15 -8 -8 0 -15 4 -15 8 0 5 7
9 15 9 8 0 15 -4 15 -9z m1310 -828 c0 -5 -2 -10 -4 -10 -3 0 -8 5 -11 10 -3
6 -1 10 4 10 6 0 11 -4 11 -10z m-40 -40 c0 -5 -5 -10 -11 -10 -5 0 -7 5 -4
10 3 6 8 10 11 10 2 0 4 -4 4 -10z m-2543 -52 c-3 -8 -6 -5 -6 6 -1 11 2 17 5
13 3 -3 4 -12 1 -19z m3074 -4 c22 -27 -2 -28 -28 -1 -25 24 -25 26 -5 20 12
-3 27 -12 33 -19z m-151 -56 c0 -6 -7 -5 -15 2 -8 7 -15 17 -15 22 0 6 7 5 15
-2 8 -7 15 -17 15 -22z m-1815 -19 c4 -5 -3 -9 -14 -9 -26 0 -35 15 -11 17 11
1 22 -2 25 -8z m1483 -154 c-3 -3 -9 2 -12 12 -6 14 -5 15 5 6 7 -7 10 -15 7
-18z"/>
<path d="M3311 5414 c-18 -8 -31 -17 -29 -20 6 -5 78 24 78 31 0 8 -12 5 -49
-11z"/>
<path d="M3690 5130 c13 -8 12 -10 -3 -10 -10 0 -16 -4 -12 -9 3 -6 21 -9 40
-7 20 2 54 0 77 -4 30 -6 51 -4 70 6 16 8 28 16 28 19 0 2 -25 1 -55 -2 -38
-4 -55 -2 -55 6 0 7 -20 11 -52 11 -38 0 -49 -3 -38 -10z"/>
<path d="M3910 5125 c-10 -12 -10 -15 3 -15 19 0 31 16 18 24 -5 3 -14 -1 -21
-9z"/>
<path d="M3493 5123 c-7 -2 -13 -11 -13 -19 0 -17 1 -17 37 -3 22 8 24 12 13
19 -16 11 -19 11 -37 3z"/>
<path d="M3746 5076 c3 -8 13 -12 25 -9 23 6 15 23 -11 23 -12 0 -17 -5 -14
-14z"/>
</g>
</svg>
